<?xml version="1.0" encoding="utf-8"?>
<!-- Generator: Adobe Illustrator 16.0.0, SVG Export Plug-In . SVG Version: 6.00 Build 0)  -->
<!DOCTYPE svg PUBLIC "-//W3C//DTD SVG 1.1//EN" "http://www.w3.org/Graphics/SVG/1.1/DTD/svg11.dtd">
<svg version="1.1" id="Layer_1" xmlns="http://www.w3.org/2000/svg" xmlns:xlink="http://www.w3.org/1999/xlink" x="0px" y="0px"
	 width="64.333px" height="53.5px" viewBox="0 0 64.333 53.5" enable-background="new 0 0 64.333 53.5" xml:space="preserve">
<g>
	<g>
		<g>
			<g>
				<polygon display="none" fill="#FFFFFF" stroke="#FFFFFF" stroke-miterlimit="10" points="1.818,27.155 17.104,0.5 25.239,0.5 
					10.153,27.152 				"/>
				<polygon display="none" fill="#FFFFFF" stroke="#FFFFFF" stroke-miterlimit="10" points="1.818,27.261 17.104,53.5 25.239,53.5 
					10.153,27.055 				"/>
				<polygon display="none" fill="#FFFFFF" stroke="#FFFFFF" stroke-miterlimit="10" points="63.017,27.155 47.73,0.5 39.595,0.5 
					54.681,27.152 				"/>
				<polygon display="none" fill="#FFFFFF" stroke="#FFFFFF" stroke-miterlimit="10" points="63.017,27.261 47.73,53.5 39.595,53.5 
					54.681,27.055 				"/>
				<path fill="#FFFFFF" stroke="#FFFFFF" stroke-miterlimit="10" d="M40.008,0.5H24.863L9.919,26.96L24.784,53.5h15.062
					l15.011-26.523L40.008,0.5z M29.277,39.596c-0.798,1.404-2.538,1.92-3.888,1.147c-1.351-0.771-1.795-2.535-0.997-3.938
					l12.06-21.208c0.8-1.404,2.54-1.918,3.89-1.146c1.35,0.771,1.795,2.535,0.996,3.938L29.277,39.596z"/>
			</g>
		</g>
		<polygon fill="#E1E0E0" stroke="#E1E0E0" stroke-miterlimit="10" points="1.646,26.5 9.737,26.5 24.624,0.5 16.928,0.5 		"/>
		<polygon fill="#C4C3C3" stroke="#C4C3C3" stroke-miterlimit="10" points="1.646,27.5 9.737,27.5 24.624,53.5 16.928,53.5 		"/>
		<polygon fill="#E1E0E0" stroke="#E1E0E0" stroke-miterlimit="10" points="63.278,26.5 55.188,26.5 40.3,0.5 47.997,0.5 		"/>
		<polygon fill="#C4C3C3" stroke="#C4C3C3" stroke-miterlimit="10" points="63.278,27.5 55.188,27.5 40.3,53.5 47.997,53.5 		"/>
	</g>
	<g>
		<g>
			<g>
				<polygon display="none" fill="#048BC2" stroke="#048BC2" stroke-miterlimit="10" points="1.819,27.155 17.192,0.5 25.374,0.5 
					10.202,27.152 				"/>
				<polygon display="none" fill="#0375AD" stroke="#0375AD" stroke-miterlimit="10" points="1.819,27.261 17.192,53.5 25.374,53.5 
					10.202,27.055 				"/>
				<polygon display="none" fill="#048BC2" stroke="#048BC2" stroke-miterlimit="10" points="63.367,27.155 47.994,0.5 39.812,0.5 
					54.985,27.152 				"/>
				<polygon display="none" fill="#0375AD" stroke="#0375AD" stroke-miterlimit="10" points="63.367,27.261 47.994,53.5 
					39.812,53.5 54.985,27.055 				"/>
				<path fill="#FFFFFF" stroke="#FFFFFF" stroke-miterlimit="10" d="M40.663,0.5H25.215L9.966,26.96L25.132,53.5h15.364
					l15.314-26.523L40.663,0.5z M29.436,39.596c-0.803,1.404-2.554,1.92-3.91,1.147c-1.355-0.771-1.806-2.535-1.003-3.938
					l12.129-21.208c0.803-1.404,2.555-1.918,3.91-1.146c1.357,0.771,1.806,2.535,1.003,3.938L29.436,39.596z"/>
			</g>
		</g>
		<polygon fill="#E1E0E0" stroke="#E1E0E0" stroke-miterlimit="10" points="1.646,26.5 9.782,26.5 24.757,0.5 17.015,0.5 		"/>
		<polygon fill="#C4C3C3" stroke="#C4C3C3" stroke-miterlimit="10" points="1.646,27.5 9.782,27.5 24.757,53.5 17.015,53.5 		"/>
		<polygon fill="#E1E0E0" stroke="#E1E0E0" stroke-miterlimit="10" points="63.632,26.5 55.495,26.5 40.521,0.5 48.263,0.5 		"/>
		<polygon fill="#C4C3C3" stroke="#C4C3C3" stroke-miterlimit="10" points="63.632,27.5 55.495,27.5 40.521,53.5 48.263,53.5 		"/>
	</g>
</g>
<g>
</g>
<g>
</g>
<g>
</g>
<g>
</g>
<g>
</g>
<g>
</g>
</svg>
