<?xml version="1.0" encoding="utf-8"?>
<!-- Generator: Adobe Illustrator 16.0.0, SVG Export Plug-In . SVG Version: 6.00 Build 0)  -->
<!DOCTYPE svg PUBLIC "-//W3C//DTD SVG 1.1//EN" "http://www.w3.org/Graphics/SVG/1.1/DTD/svg11.dtd">
<svg version="1.1" id="Camada_1" xmlns="http://www.w3.org/2000/svg" xmlns:xlink="http://www.w3.org/1999/xlink" x="0px" y="0px"
	 width="366.5px" height="55px" viewBox="0 0 366.5 55" enable-background="new 0 0 366.5 55" xml:space="preserve">
<g>
	<g>
		<g>
			<g>
				<g>
					<g>
						<path fill="#FFFFFF" d="M6.68,22.453H1.136l-0.281-0.999L13.071,7.819h0.571v9.022h9.229c0.192,0.804,0.289,1.704,0.289,2.695
							c0,0.523-0.024,1.022-0.073,1.492c-0.044,0.477-0.12,0.951-0.216,1.424h-9.229v16.623c0,1.997,0.081,3.583,0.25,4.767
							c0.162,1.186,0.447,2.096,0.845,2.737c0.404,0.646,0.949,1.063,1.64,1.277c0.684,0.214,1.55,0.322,2.592,0.322
							c0.81,0,1.559-0.061,2.272-0.179c0.71-0.122,1.35-0.249,1.917-0.387c0.329,0.944,0.53,1.912,0.605,2.902
							c0.07,1.004,0.102,1.874,0.102,2.634c-0.945,0.239-1.937,0.414-2.983,0.531c-1.04,0.117-2.154,0.175-3.334,0.175
							c-3.415,0-6.074-0.823-7.995-2.48c-1.917-1.661-2.875-4.408-2.875-8.244V22.453z"/>
					</g>
				</g>
				<g>
					<g>
						<path fill="#FFFFFF" d="M29.341,16.842c0.521-0.098,1.019-0.166,1.491-0.211c0.477-0.051,0.969-0.075,1.49-0.075
							s1.042,0.024,1.566,0.075c0.516,0.045,0.991,0.113,1.417,0.211c0.141,0.707,0.283,1.642,0.43,2.804
							c0.142,1.162,0.208,2.147,0.208,2.946c0.996-1.604,2.312-3.007,3.946-4.187c1.638-1.185,3.73-1.773,6.288-1.773
							c0.382,0,0.77,0.008,1.171,0.035c0.403,0.02,0.745,0.056,1.034,0.101c0.092,0.428,0.161,0.879,0.208,1.352
							c0.049,0.47,0.076,0.977,0.076,1.493c0,0.566-0.039,1.161-0.108,1.778c-0.073,0.612-0.154,1.202-0.247,1.771
							c-0.383-0.094-0.777-0.136-1.174-0.136c-0.407,0-0.727,0-0.96,0c-1.278,0-2.499,0.172-3.661,0.526
							c-1.16,0.358-2.198,0.987-3.12,1.885c-0.929,0.899-1.663,2.131-2.207,3.692c-0.542,1.564-0.82,3.581-0.82,6.045v18.119
							c-0.518,0.097-1.1,0.161-1.746,0.214c-0.629,0.046-1.208,0.071-1.728,0.071c-0.521,0-1.104-0.025-1.746-0.071
							c-0.641-0.053-1.244-0.117-1.81-0.214V16.842z"/>
					</g>
				</g>
				<g>
					<g>
						<path fill="#FFFFFF" d="M72.891,29.277c0-2.8-0.71-4.738-2.134-5.832c-1.421-1.088-3.483-1.629-6.18-1.629
							c-1.657,0-3.209,0.127-4.659,0.386c-1.439,0.262-2.845,0.604-4.22,1.031c-0.903-1.56-1.35-3.432-1.35-5.61
							c1.609-0.522,3.384-0.926,5.329-1.21c1.94-0.283,3.806-0.427,5.607-0.427c4.741,0,8.338,1.083,10.804,3.231
							c2.465,2.155,3.696,5.604,3.696,10.338v22.818c-1.658,0.374-3.672,0.762-6.041,1.162c-2.371,0.406-4.783,0.608-7.249,0.608
							c-2.318,0-4.416-0.211-6.285-0.639c-1.872-0.43-3.459-1.116-4.758-2.059c-1.308-0.954-2.313-2.156-3.022-3.625
							c-0.71-1.466-1.063-3.245-1.063-5.332c0-2.038,0.411-3.824,1.241-5.364c0.827-1.544,1.954-2.817,3.378-3.841
							c1.415-1.019,3.054-1.775,4.898-2.275c1.845-0.49,3.79-0.744,5.826-0.744c1.515,0,2.755,0.034,3.726,0.107
							c0.973,0.071,1.789,0.155,2.457,0.254V29.277z M72.891,36.164c-0.71-0.091-1.612-0.188-2.696-0.28
							c-1.094-0.097-2.02-0.139-2.776-0.139c-2.938,0-5.174,0.536-6.709,1.629c-1.544,1.091-2.312,2.748-2.312,4.981
							c0,1.416,0.256,2.528,0.782,3.329c0.521,0.81,1.168,1.427,1.956,1.854c0.777,0.424,1.639,0.685,2.588,0.776
							c0.949,0.099,1.85,0.14,2.704,0.14c1.084,0,2.208-0.058,3.371-0.17c1.155-0.124,2.189-0.292,3.092-0.533V36.164z"/>
					</g>
				</g>
				<g>
					<g>
						<path fill="#FFFFFF" d="M113.239,46.967c0.386,0.667,0.714,1.487,0.996,2.485c0.291,0.999,0.454,2.014,0.502,3.052
							c-2.796,1.095-5.995,1.641-9.594,1.641c-6.059,0-10.63-1.719-13.711-5.15c-3.079-3.431-4.617-8.066-4.617-13.896
							c0-2.698,0.378-5.208,1.138-7.532c0.763-2.319,1.879-4.334,3.374-6.041c1.495-1.704,3.353-3.055,5.574-4.048
							c2.225-0.994,4.81-1.491,7.746-1.491c1.987,0,3.74,0.113,5.257,0.355c1.516,0.238,2.962,0.617,4.331,1.136
							c0,0.806-0.108,1.74-0.318,2.808c-0.215,1.068-0.512,1.999-0.886,2.806c-2.324-0.807-4.972-1.207-7.958-1.207
							c-3.65,0-6.372,1.207-8.172,3.624c-1.797,2.414-2.703,5.613-2.703,9.591c0,4.553,1.026,7.888,3.061,9.988
							c2.029,2.102,4.832,3.156,8.377,3.156c1.427,0,2.74-0.092,3.945-0.281C110.792,47.779,112.013,47.439,113.239,46.967z"/>
					</g>
				</g>
				<g>
					<g>
						<path fill="#FFFFFF" d="M125.674,36.808c0.097,3.978,1.128,6.894,3.096,8.743c1.959,1.843,4.866,2.764,8.703,2.764
							c3.355,0,6.555-0.591,9.588-1.768c0.374,0.703,0.689,1.571,0.922,2.591c0.237,1.016,0.382,2.02,0.423,3.017
							c-1.56,0.664-3.278,1.161-5.149,1.492c-1.871,0.333-3.945,0.498-6.213,0.498c-3.314,0-6.161-0.464-8.527-1.384
							c-2.367-0.928-4.325-2.229-5.86-3.906c-1.544-1.685-2.661-3.671-3.371-5.974c-0.715-2.303-1.069-4.817-1.069-7.572
							c0-2.7,0.337-5.217,1.029-7.564c0.686-2.344,1.737-4.383,3.164-6.11c1.417-1.725,3.199-3.097,5.364-4.12
							c2.153-1.021,4.698-1.528,7.633-1.528c2.507,0,4.713,0.427,6.608,1.28c1.888,0.852,3.478,2.024,4.763,3.514
							c1.273,1.493,2.242,3.271,2.911,5.334c0.662,2.059,0.993,4.293,0.993,6.711c0,0.663-0.024,1.363-0.074,2.1
							c-0.043,0.732-0.091,1.355-0.137,1.883H125.674z M143.721,31.544c0-1.326-0.173-2.593-0.535-3.8
							c-0.356-1.21-0.874-2.261-1.56-3.162c-0.689-0.893-1.562-1.623-2.627-2.166c-1.07-0.544-2.335-0.815-3.808-0.815
							c-2.883,0-5.099,0.876-6.64,2.625c-1.538,1.754-2.472,4.195-2.796,7.318H143.721z"/>
					</g>
				</g>
				<g>
					<g>
						<path fill="#FFFFFF" d="M158.5,16.842c0.521-0.098,1.019-0.166,1.489-0.211c0.477-0.051,0.973-0.075,1.494-0.075
							c0.519,0,1.042,0.024,1.566,0.075c0.52,0.045,0.989,0.113,1.416,0.211c0.143,0.707,0.285,1.642,0.428,2.804
							c0.145,1.162,0.212,2.147,0.212,2.946c0.995-1.604,2.306-3.007,3.94-4.187c1.636-1.185,3.734-1.773,6.292-1.773
							c0.379,0,0.768,0.008,1.17,0.035c0.398,0.02,0.748,0.056,1.032,0.101c0.092,0.428,0.165,0.879,0.214,1.352
							c0.047,0.47,0.073,0.977,0.073,1.493c0,0.566-0.039,1.161-0.11,1.778c-0.072,0.612-0.151,1.202-0.245,1.771
							c-0.385-0.094-0.773-0.136-1.177-0.136s-0.724,0-0.957,0c-1.279,0-2.498,0.172-3.657,0.526
							c-1.162,0.358-2.202,0.987-3.133,1.885c-0.918,0.899-1.655,2.131-2.199,3.692c-0.54,1.564-0.816,3.581-0.816,6.045v18.119
							c-0.521,0.097-1.102,0.161-1.743,0.214c-0.632,0.046-1.218,0.071-1.743,0.071c-0.515,0-1.102-0.025-1.734-0.071
							c-0.641-0.053-1.247-0.117-1.812-0.214V16.842z"/>
					</g>
				</g>
				<g>
					<g>
						<path fill="#FFFFFF" d="M182.08,46.683c1.287,0.523,2.691,0.938,4.234,1.248c1.539,0.305,3.063,0.457,4.576,0.457
							c1.096,0,2.133-0.112,3.131-0.354c0.989-0.238,1.856-0.596,2.584-1.067c0.738-0.474,1.338-1.055,1.786-1.741
							c0.453-0.688,0.669-1.455,0.669-2.309c0-0.941-0.179-1.728-0.531-2.348c-0.352-0.613-0.834-1.138-1.422-1.557
							c-0.592-0.43-1.276-0.797-2.061-1.107c-0.775-0.31-1.623-0.604-2.518-0.888l-2.488-0.924c-3.027-1.138-5.23-2.417-6.605-3.838
							c-1.379-1.419-2.063-3.338-2.063-5.758c0-3.212,1.15-5.774,3.451-7.67c2.297-1.893,5.669-2.842,10.117-2.842
							c1.845,0,3.658,0.179,5.434,0.533c1.782,0.355,3.332,0.771,4.66,1.246c-0.098,0.945-0.284,1.891-0.537,2.839
							c-0.26,0.95-0.587,1.824-0.953,2.628c-1.043-0.375-2.295-0.745-3.742-1.103c-1.438-0.349-2.992-0.529-4.645-0.529
							c-1.756,0-3.303,0.308-4.659,0.919c-1.345,0.622-2.017,1.706-2.017,3.271c0,0.807,0.158,1.495,0.492,2.059
							c0.329,0.571,0.781,1.055,1.35,1.46c0.566,0.403,1.219,0.744,1.953,1.027c0.735,0.29,1.527,0.569,2.385,0.854l3.127,1.065
							c1.135,0.38,2.205,0.832,3.23,1.352c1.011,0.523,1.893,1.174,2.629,1.953c0.724,0.78,1.322,1.73,1.773,2.842
							c0.441,1.113,0.676,2.452,0.676,4.019c0,1.752-0.353,3.351-1.063,4.804c-0.711,1.433-1.719,2.673-3.025,3.685
							c-1.304,1.02-2.873,1.812-4.717,2.383c-1.852,0.563-3.891,0.853-6.113,0.853c-2.272,0-4.266-0.153-5.967-0.464
							c-1.711-0.31-3.295-0.72-4.76-1.243c0.095-0.946,0.293-1.905,0.605-2.88C181.361,48.588,181.707,47.634,182.08,46.683z"/>
					</g>
				</g>
				<g>
					<g>
						<path fill="#FFFFFF" d="M228.4,54.145c-2.848,0-5.328-0.49-7.461-1.457c-2.117-0.968-3.906-2.308-5.331-4.012
							c-1.409-1.709-2.469-3.721-3.151-6.038c-0.687-2.324-1.034-4.838-1.034-7.539c0-2.698,0.348-5.208,1.034-7.532
							c0.683-2.319,1.742-4.334,3.151-6.041c1.425-1.704,3.214-3.055,5.331-4.048c2.133-0.994,4.613-1.491,7.461-1.491
							c2.846,0,5.334,0.497,7.459,1.491c2.141,0.993,3.912,2.345,5.331,4.048c1.416,1.707,2.471,3.722,3.165,6.041
							c0.684,2.324,1.027,4.834,1.027,7.532c0,2.701-0.344,5.215-1.027,7.539c-0.694,2.317-1.749,4.329-3.165,6.038
							c-1.419,1.704-3.19,3.044-5.331,4.012C233.734,53.655,231.246,54.145,228.4,54.145z M228.4,48.533
							c3.275,0,5.686-1.187,7.245-3.558c1.571-2.364,2.354-5.654,2.354-9.876c0-4.215-0.783-7.498-2.354-9.839
							c-1.56-2.345-3.97-3.518-7.245-3.518c-3.266,0-5.674,1.173-7.205,3.518c-1.545,2.341-2.31,5.624-2.31,9.839
							c0,4.222,0.765,7.512,2.31,9.876C222.727,47.346,225.135,48.533,228.4,48.533z"/>
					</g>
				</g>
				<g>
					<g>
						<path fill="#FFFFFF" d="M255.328,22.378h-5.967c-0.189-0.758-0.281-1.681-0.281-2.767c0-1.038,0.092-1.966,0.281-2.77h5.967
							v-2.564c0-4.497,1.131-7.919,3.371-10.261c2.261-2.349,5.529-3.518,9.85-3.518c1.178,0,2.215,0.061,3.126,0.181
							c0.888,0.117,1.752,0.293,2.546,0.531c-0.086,1.183-0.229,2.197-0.379,3.053c-0.181,0.853-0.388,1.729-0.678,2.63
							c-0.473-0.096-1.031-0.201-1.678-0.318c-0.63-0.117-1.398-0.18-2.301-0.18c-1.043,0-1.975,0.104-2.805,0.319
							c-0.838,0.211-1.539,0.615-2.131,1.207c-0.602,0.594-1.069,1.418-1.387,2.484c-0.336,1.065-0.507,2.43-0.507,4.089v2.347
							h9.318c0.13,0.946,0.205,1.914,0.205,2.91c0,0.9-0.075,1.774-0.205,2.626h-9.318v30.914c-0.515,0.097-1.099,0.161-1.741,0.214
							c-0.629,0.046-1.215,0.071-1.728,0.071c-0.521,0-1.118-0.025-1.784-0.071c-0.662-0.053-1.252-0.117-1.775-0.214V22.378z"/>
					</g>
				</g>
				<g>
					<g>
						<path fill="#FFFFFF" d="M279.057,22.453h-5.537l-0.284-0.999l12.208-13.634h0.58v9.022h9.232
							c0.195,0.804,0.285,1.704,0.285,2.695c0,0.523-0.025,1.022-0.069,1.492c-0.051,0.477-0.126,0.951-0.216,1.424h-9.232v16.623
							c0,1.997,0.076,3.583,0.253,4.767c0.163,1.186,0.437,2.096,0.846,2.737c0.397,0.646,0.945,1.063,1.631,1.277
							c0.688,0.214,1.548,0.322,2.592,0.322c0.81,0,1.568-0.061,2.272-0.179c0.717-0.122,1.357-0.249,1.924-0.387
							c0.328,0.944,0.533,1.912,0.611,2.902c0.062,1.004,0.1,1.874,0.1,2.634c-0.949,0.239-1.945,0.414-2.985,0.531
							c-1.048,0.117-2.154,0.175-3.337,0.175c-3.417,0-6.076-0.823-8.006-2.48c-1.914-1.661-2.867-4.408-2.867-8.244V22.453z"/>
					</g>
				</g>
			</g>
		</g>
	</g>
	<g>
		<g>
			<g>
				<g>
					<polygon display="none" fill="#FFFFFF" stroke="#FFFFFF" stroke-miterlimit="10" points="303.382,27.155 318.667,0.5 
						326.803,0.5 311.717,27.153 					"/>
					<polygon display="none" fill="#FFFFFF" stroke="#FFFFFF" stroke-miterlimit="10" points="303.382,27.261 318.667,53.5 
						326.803,53.5 311.717,27.054 					"/>
					<polygon display="none" fill="#FFFFFF" stroke="#FFFFFF" stroke-miterlimit="10" points="364.58,27.155 349.294,0.5 
						341.158,0.5 356.244,27.153 					"/>
					<polygon display="none" fill="#FFFFFF" stroke="#FFFFFF" stroke-miterlimit="10" points="364.58,27.261 349.294,53.5 
						341.158,53.5 356.244,27.054 					"/>
					<path fill="#FFFFFF" stroke="#FFFFFF" stroke-miterlimit="10" d="M341.571,0.5h-15.144L311.482,26.96L326.348,53.5h15.062
						l15.011-26.523L341.571,0.5z M330.841,39.596c-0.798,1.404-2.538,1.919-3.888,1.147c-1.35-0.771-1.795-2.535-0.997-3.939
						l12.06-21.208c0.799-1.404,2.54-1.918,3.889-1.146c1.35,0.771,1.795,2.535,0.996,3.938L330.841,39.596z"/>
				</g>
			</g>
			<polygon fill="#E1E0E0" stroke="#E1E0E0" stroke-miterlimit="10" points="303.209,26.5 311.301,26.5 326.188,0.5 318.491,0.5 			
				"/>
			<polygon fill="#C4C3C3" stroke="#C4C3C3" stroke-miterlimit="10" points="303.209,27.5 311.301,27.5 326.188,53.5 318.491,53.5 
							"/>
			<polygon fill="#E1E0E0" stroke="#E1E0E0" stroke-miterlimit="10" points="364.842,26.5 356.752,26.5 341.863,0.5 349.561,0.5 			
				"/>
			<polygon fill="#C4C3C3" stroke="#C4C3C3" stroke-miterlimit="10" points="364.842,27.5 356.752,27.5 341.863,53.5 349.561,53.5 
							"/>
		</g>
		<g>
			<g>
				<g>
					<polygon display="none" fill="#008AC1" stroke="#008AC1" stroke-miterlimit="10" points="303.383,27.155 318.756,0.5 
						326.938,0.5 311.766,27.153 					"/>
					<polygon display="none" fill="#0074AD" stroke="#0074AD" stroke-miterlimit="10" points="303.383,27.261 318.756,53.5 
						326.938,53.5 311.766,27.054 					"/>
					<polygon display="none" fill="#008AC1" stroke="#008AC1" stroke-miterlimit="10" points="364.931,27.155 349.558,0.5 
						341.376,0.5 356.549,27.153 					"/>
					<polygon display="none" fill="#0074AD" stroke="#0074AD" stroke-miterlimit="10" points="364.931,27.261 349.558,53.5 
						341.376,53.5 356.549,27.054 					"/>
					<path fill="#FFFFFF" stroke="#FFFFFF" stroke-miterlimit="10" d="M342.227,0.5h-15.449L311.529,26.96L326.695,53.5h15.365
						l15.314-26.523L342.227,0.5z M330.999,39.596c-0.803,1.404-2.554,1.919-3.91,1.147c-1.356-0.771-1.806-2.535-1.003-3.939
						l12.129-21.208c0.803-1.404,2.555-1.918,3.91-1.146c1.357,0.771,1.806,2.535,1.003,3.938L330.999,39.596z"/>
				</g>
			</g>
			<polygon fill="#E1E0E0" stroke="#E1E0E0" stroke-miterlimit="10" points="303.209,26.5 311.346,26.5 326.32,0.5 318.578,0.5 			
				"/>
			<polygon fill="#C4C3C3" stroke="#C4C3C3" stroke-miterlimit="10" points="303.209,27.5 311.346,27.5 326.32,53.5 318.578,53.5 
							"/>
			<polygon fill="#E1E0E0" stroke="#E1E0E0" stroke-miterlimit="10" points="365.195,26.5 357.059,26.5 342.084,0.5 349.826,0.5 			
				"/>
			<polygon fill="#C4C3C3" stroke="#C4C3C3" stroke-miterlimit="10" points="365.195,27.5 357.059,27.5 342.084,53.5 349.826,53.5 
							"/>
		</g>
	</g>
</g>
<g>
</g>
<g>
</g>
<g>
</g>
<g>
</g>
<g>
</g>
<g>
</g>
</svg>
